# xmcd CD database file
#
# Track frame offsets:
#	150
#	15204
#	35512
#	57396
#	76335
#	97519
#	118944
#	140460
#	155551
#	174951
#	198424
#
# Disc length: 2908 seconds
#
# Revision: 0
# Processed by: cddbd v1.5.2PL0 Copyright (c) Steve Scherf et al.
# Submitted via: CDex 1.70beta2
#
DISCID=800b5a0b
DTITLE=Mark Colby - Reunion with Vince Maggio
DYEAR=1900
DGENRE=Jazz
TTITLE0=You and the Night and The Music
TTITLE1=Windows
TTITLE2=I'm Gonna Laugh You Right Out of My Life
TTITLE3=O Grande Amor
TTITLE4=Lester Left Town
TTITLE5=Soul Eyes
TTITLE6=Up Jumped Spring
TTITLE7=Airegin
TTITLE8=Miyako
TTITLE9=Felicidade
TTITLE10=Once in a Garden
EXTD=
EXTT0=
EXTT1=
EXTT2=
EXTT3=
EXTT4=
EXTT5=
EXTT6=
EXTT7=
EXTT8=
EXTT9=
EXTT10=
PLAYORDER=
